Coordinates
version=1
nRows=17
nColumns=36
inDegrees=yes

Units are S.I. units (second, meters, Newtons, ...)
If the header above contains a line with 'inDegrees', this indicates whether rotational values are in degrees (yes) or radians (no).

endheader
time	pelvis_tilt	pelvis_list	pelvis_rotation	pelvis_tx	pelvis_ty	pelvis_tz	hip_flexion_r	hip_adduction_r	hip_rotation_r	knee_angle_r	knee_angle_r_beta	ankle_angle_r	subtalar_angle_r	mtp_angle_r	hip_flexion_l	hip_adduction_l	hip_rotation_l	knee_angle_l	knee_angle_l_beta	ankle_angle_l	subtalar_angle_l	mtp_angle_l	lumbar_extension	lumbar_bending	lumbar_rotation	arm_flex_r	arm_add_r	arm_rot_r	elbow_flex_r	pro_sup_r	arm_flex_l	arm_add_l	arm_rot_l	elbow_flex_l	pro_sup_l
      1.22500000	    -15.81081710	     -2.04709020	      2.73632348	     -0.86978951	      1.14014569	     -0.08011512	     36.57156098	     -1.32630411	     -2.16562373	     53.45108088	      0.93289735	     28.83150070	     -9.27128226	     -7.49999987	     38.06989470	     -1.27637249	      2.15892964	     56.20169126	      0.98090456	     31.30711331	     -2.90504161	     -7.49999987	    -29.38686039	      2.13016535	      2.63783353	      6.67465544	    -13.83234059	     10.88937012	     40.44155350	     72.71465611	      4.81784114	    -13.08312573	     16.32816179	     40.66530558	     68.25643634
      1.22916670	    -15.59061152	     -1.75515012	      2.57655200	     -0.87001074	      1.13757499	     -0.08014398	     36.74399298	     -1.64891629	     -1.93838580	     54.56435533	      0.95232765	     29.19729807	     -9.59654852	     -7.49999987	     37.87888176	     -1.00809485	      2.03103355	     56.72921495	      0.99011158	     31.69906108	     -3.10181711	     -7.49999987	    -29.91279570	      1.85313789	      2.67732690	      7.08961365	    -13.85239743	     10.81457758	     40.60694430	     72.55964360	      5.17704677	    -13.02805179	     16.25504972	     41.03806363	     68.10784796
      1.23333330	    -15.31282744	     -1.49124620	      2.38233779	     -0.86764597	      1.13843030	     -0.08258691	     36.71943078	     -1.92891222	     -1.69661193	     55.26258841	      0.96451412	     29.49857723	     -9.17689150	     -7.49999987	     37.50244844	     -0.69923694	      1.96847028	     56.92090213	      0.99345716	     31.90738300	     -3.09131389	     -7.49999987	    -30.58566281	      1.64717738	      2.66302021	      7.69111439	    -13.92418532	     10.73485613	     40.55872790	     72.73980555	      5.62939027	    -12.89054260	     16.17033886	     41.17562072	     68.19303251
      1.23750000	    -15.06285561	     -1.24165682	      2.22216410	     -0.86448673	      1.13738390	     -0.08180422	     36.60109962	     -2.18724617	     -1.51083754	     55.86808787	      0.97508208	     29.88668695	     -8.87788432	     -7.49999987	     37.01068317	     -0.43697452	      1.87202399	     57.00917871	      0.99499787	     32.18666981	     -3.29966818	     -7.49999987	    -31.14034627	      1.46360403	      2.52413014	      8.39322880	    -13.90749194	     10.57641194	     40.12035167	     78.36112396	      5.98956158	    -12.88588076	     15.99175145	     41.33510411	     71.90174025
      1.24166670	    -14.88020624	     -1.03793303	      2.14168563	     -0.86637616	      1.13093730	     -0.08119352	     36.94508720	     -2.34860018	     -1.29563369	     56.75319459	      0.99053011	     30.84249382	     -8.26208055	     -7.49999987	     37.01159863	     -0.24918947	      1.78058550	     57.66767393	      1.00649078	     32.77996886	     -3.35465455	     -7.49999987	    -31.79561838	      1.26210622	      2.55870474	      8.61536117	    -13.89968429	      9.81212987	     40.89351774	     77.16029443	      6.28921046	    -12.77875013	     15.19698994	     42.20515777	     71.13125201
      1.24583330	    -14.67839381	     -0.83096922	      2.06871501	     -0.86274614	      1.13209947	     -0.08099673	     37.00012621	     -2.45214747	     -1.00660511	     57.39484304	      1.00172898	     31.59606953	     -7.35106268	     -7.49999987	     36.84227131	     -0.06917118	      1.70426632	     58.15094408	      1.01492544	     32.87374253	     -3.80108789	     -7.49999987	    -32.29698756	      1.07928530	      2.53474237	      9.09212413	    -13.89197994	      9.55110014	     40.96586771	     77.61949465	      6.79829789	    -12.70776262	     15.08339218	     42.46388077	     71.53485425
      1.25000000	    -14.42233721	     -0.62221246	      1.96261395	     -0.86038350	      1.12798074	     -0.08039713	     36.91274320	     -2.54489498	     -0.78218199	     58.22569677	      1.01623012	     32.40319878	     -6.99508641	     -7.49999987	     36.66384977	      0.01781097	      1.45614632	     58.80687632	      1.02637361	     33.31566790	     -4.01754709	     -7.49999987	    -32.78510226	      0.83573372	      2.61607763	      9.40116550	    -13.93827842	      9.29099330	     41.30778393	     76.84932608	      7.18146905	    -12.67125218	     14.83529630	     42.99217237	     71.03356659
      1.25416670	    -14.28610690	     -0.35851341	      1.82826989	     -0.85665314	      1.12389656	     -0.08120556	     37.07072733	     -2.80008509	     -0.52721462	     59.45200941	      1.03763331	     33.11019678	     -6.48060546	     -7.49999987	     36.63770858	      0.19364777	      1.17622891	     59.64806981	      1.04105521	     33.98634202	     -4.10321035	     -7.49999987	    -33.05943418	      0.62812657	      2.65901416	      9.63766467	    -13.96586721	      9.05621717	     41.57698782	     76.25385222	      7.49168693	    -12.60775552	     14.60485770	     43.45878751	     70.65384555
      1.25833330	    -14.29909422	     -0.12926620	      1.61533542	     -0.85548559	      1.12144845	     -0.08120521	     37.32579170	     -3.02187446	     -0.34698084	     60.54919807	      1.05678287	     33.54835785	     -6.80429194	     -7.49999987	     36.73318025	      0.35815511	      0.94982231	     60.34189297	      1.05316471	     34.52706535	     -4.20939544	     -7.49999987	    -33.12479492	      0.42698123	      2.70246023	      9.88874233	    -13.87100198	      7.85875852	     41.69508995	     81.62955815	      7.65601255	    -12.42306441	     13.54678374	     43.87086332	     75.50208877
      1.26250000	    -14.14193418	      0.13962187	      1.32883417	     -0.85021522	      1.11584850	     -0.07910091	     37.41449716	     -3.20047680	     -0.21705937	     61.84760046	      1.07944426	     34.22256734	     -6.86100089	     -7.49999987	     36.58710955	      0.40525048	      0.54846710	     61.23569190	      1.06876444	     35.43782179	     -3.94765005	     -7.49999987	    -33.30060645	      0.09029659	      2.83357579	      9.93974959	    -13.85156877	      7.55768029	     42.17378740	     79.73611573	      7.69520349	    -12.40957836	     13.15967209	     44.64813775	     74.10524134
      1.26666670	    -14.33409961	      0.36041241	      1.10795459	     -0.84948485	      1.11108068	     -0.07847359	     38.11805354	     -3.25948791	     -0.00695958	     63.31537987	      1.10506185	     35.11439630	     -6.89757847	     -7.49999987	     37.07099280	      0.38182487	      0.19240411	     62.35218470	      1.08825092	     36.22186333	     -3.81871373	     -7.49999987	    -33.04634221	     -0.19864279	      2.90641188	     10.09379569	    -13.86154289	      7.52638993	     42.33057326	     78.73711438	      7.81883495	    -12.47036697	     13.05563218	     45.12200408	     73.40987038
      1.27083330	    -14.53993884	      0.43871782	      0.94606271	     -0.85055177	      1.10853935	     -0.07720990	     38.85910996	     -3.10207230	      0.20670087	     64.45679415	      1.12498328	     35.89430927	     -6.55408648	     -7.49999987	     37.71154038	      0.27023692	     -0.04382706	     63.41704305	      1.10683620	     36.58691050	     -3.77108268	     -7.49999987	    -32.79494040	     -0.37301636	      3.00935574	     10.36050786	    -13.88187473	      7.42811673	     42.61569756	     77.87209325	      8.03073703	    -12.50861591	     12.78838790	     45.78810754	     72.76949341
      1.27500000	    -14.71192059	      0.60372530	      0.85865179	     -0.84590715	      1.10878762	     -0.07763832	     39.15913478	     -3.11345192	      0.41647666	     65.16952689	      1.13742282	     36.09742782	     -6.88031264	     -7.49999987	     37.97456722	      0.31006209	     -0.25071796	     64.06002959	      1.11805844	     36.85696229	     -3.53746799	     -7.49999987	    -32.47273516	     -0.51667389	      2.95641440	     10.65463759	    -13.87156954	      7.41561179	     42.66662072	     78.47824257	      8.16660949	    -12.50535563	     12.64937566	     46.14133607	     73.34736827
      1.27916670	    -14.64901851	      0.66930210	      0.83851567	     -0.84736417	      1.10974596	     -0.07807164	     39.29641892	     -3.11999133	      0.69449456	     65.69803027	      1.14664694	     36.09148592	     -7.21179211	     -7.49999987	     38.05843252	      0.36475515	     -0.22813056	     64.55446498	      1.12668796	     36.78453399	     -3.83296873	     -7.49999987	    -32.75263576	     -0.53241297	      2.95607256	     11.18503271	    -13.94514750	      7.26535910	     42.88526887	     78.40905694	      8.59473256	    -12.38912293	     12.30276694	     46.73219675	     73.46188081
      1.28333330	    -14.66158832	      0.77066821	      0.83010322	     -0.84653878	      1.10916724	     -0.07896761	     39.55476660	     -3.19412260	      0.97434510	     66.04029505	      1.15262059	     35.89307297	     -7.23545435	     -7.49999987	     38.21334848	      0.55213489	     -0.12420320	     64.97061704	      1.13395118	     36.52396805	     -4.03528876	     -7.49999987	    -32.93732522	     -0.52982161	      2.76009866	     11.81345829	    -13.89996718	      6.47655736	     43.11593529	     83.44002126	      8.68666596	    -12.13486223	     10.72038397	     47.70562476	     78.88031552
      1.28750000	    -14.57827697	      0.84560935	      0.91084023	     -0.84274229	      1.10525235	     -0.07909456	     39.54714015	     -3.27760902	      1.25712136	     66.58656521	      1.16215480	     35.81474930	     -7.23495360	     -7.49999987	     38.19417531	      0.67543379	     -0.09641829	     65.59169045	      1.14479096	     36.48879754	     -4.08794285	     -7.49999987	    -33.04599615	     -0.43593816	      2.75050332	     12.33259112	    -14.03249963	      6.39074333	     43.26705244	     83.39873821	      9.18160138	    -11.95591204	     10.71341182	     47.96387227	     78.86221611
      1.29166670	    -14.49436317	      0.88917971	      0.84482059	     -0.83835032	      1.10672757	     -0.07810268	     39.38602343	     -3.35457779	      1.27284064	     67.13105183	      1.17165788	     35.68377562	     -7.35172357	     -7.49999987	     38.01578581	      0.66708416	      0.03360407	     65.79897571	      1.14840877	     36.48940047	     -4.20719383	     -7.49999987	    -33.08841158	     -0.39788282	      2.84203373	     12.81103154	    -14.10802464	      6.31093903	     43.39388601	     83.40209138	      9.59579373	    -11.77486187	     10.69573482	     48.22929361	     78.87706059
